<?xml version="1.0" standalone="no"?>
<!DOCTYPE svg PUBLIC "-//W3C//DTD SVG 20010904//EN"
 "http://www.w3.org/TR/2001/REC-SVG-20010904/DTD/svg10.dtd">
<svg version="1.0" xmlns="http://www.w3.org/2000/svg"
 width="640.000000pt" height="640.000000pt" viewBox="0 0 640.000000 640.000000"
 preserveAspectRatio="xMidYMid meet">

<g transform="translate(0.000000,640.000000) scale(0.100000,-0.100000)"
fill="#000000" stroke="none">
<path d="M5960 6296 c0 -3 14 -53 31 -109 17 -56 37 -122 44 -147 7 -25 27
-93 44 -151 42 -144 41 -152 -14 -100 -17 15 -64 52 -105 81 -41 28 -102 80
-135 114 -33 35 -51 51 -40 37 11 -14 28 -34 38 -45 10 -10 16 -24 13 -32 -3
-7 4 -16 16 -20 11 -3 37 -21 57 -38 20 -18 65 -54 101 -81 75 -55 138 -119
152 -155 30 -72 67 -193 63 -200 -13 -21 -165 58 -272 141 -35 27 -66 49 -70
49 -5 0 -26 26 -48 56 -34 48 -75 86 -75 70 0 -6 96 -135 123 -163 11 -13 18
-26 14 -29 -15 -16 -341 70 -371 97 -8 8 -36 32 -63 54 -79 65 -270 260 -278
283 -3 12 -10 22 -15 22 -4 0 -22 23 -40 50 -18 28 -38 54 -45 58 -7 4 -27 31
-45 60 -17 28 -34 52 -37 52 -8 0 38 -73 120 -192 76 -111 95 -132 269 -296
47 -45 81 -82 74 -82 -7 0 -13 -7 -13 -16 0 -10 8 -14 27 -12 16 1 44 -10 74
-29 59 -40 146 -68 251 -83 85 -12 184 -47 250 -87 22 -13 76 -45 119 -71 58
-34 100 -70 153 -129 l73 -83 0 80 c0 77 -1 80 -44 142 -73 105 -251 500 -285
633 -8 30 -100 266 -107 274 -2 2 -4 1 -4 -3z m414 -1024 c3 -5 -1 -9 -9 -9
-8 0 -12 4 -9 9 3 4 7 8 9 8 2 0 6 -4 9 -8z"/>
<path d="M643 6278 c-24 -31 -82 -141 -61 -116 25 29 82 128 75 128 -3 0 -9
-6 -14 -12z"/>
<path d="M625 6144 c-22 -13 -47 -24 -55 -24 -9 0 -50 -42 -92 -93 -106 -128
-247 -277 -263 -277 -7 0 -15 -3 -17 -7 -1 -5 -47 -30 -100 -57 -87 -43 -98
-51 -98 -75 0 -14 4 -21 8 -15 4 6 30 23 59 37 28 15 54 31 58 37 4 6 32 24
64 40 64 32 116 79 209 190 132 157 158 184 209 216 28 19 54 38 58 44 8 13 8
13 -40 -16z"/>
<path d="M3308 6112 c-30 -16 -76 -31 -104 -35 -106 -12 -245 -84 -337 -174
-89 -86 -145 -221 -134 -319 2 -24 1 -44 -3 -44 -4 0 -28 -18 -53 -41 -30 -26
-59 -66 -83 -114 -34 -70 -36 -79 -32 -147 11 -164 128 -298 296 -338 29 -7
62 -10 74 -7 16 5 31 -5 64 -42 76 -84 220 -141 320 -126 25 3 69 17 99 31 31
13 70 24 88 24 53 0 162 35 214 68 57 37 110 106 128 165 11 36 17 43 52 53
86 25 139 68 167 138 9 22 38 61 65 86 65 63 85 125 71 218 -17 106 -57 169
-135 213 -50 28 -52 31 -58 80 -8 64 -41 121 -105 181 -57 53 -102 75 -187 90
-32 6 -86 24 -120 39 -52 25 -72 29 -146 29 -76 0 -94 -4 -141 -28z m275 -31
c30 -16 85 -34 122 -40 37 -7 87 -21 111 -32 83 -40 164 -160 164 -245 0 -40
1 -42 58 -70 70 -36 108 -92 124 -185 15 -92 0 -138 -65 -202 -28 -28 -60 -69
-70 -91 -32 -72 -74 -103 -156 -115 -45 -6 -46 -7 -53 -51 -19 -111 -106 -189
-245 -221 -48 -11 -122 -31 -163 -45 -119 -39 -225 -28 -320 31 -37 23 -100
89 -100 104 0 5 -35 10 -78 13 -94 5 -157 33 -219 94 -107 107 -127 259 -50
381 29 46 94 103 117 103 14 0 16 12 12 83 -5 96 15 161 73 239 69 94 234 192
354 210 36 6 83 19 104 30 57 30 85 36 158 37 55 1 76 -4 122 -28z"/>
<path d="M3297 5836 c-78 -28 -144 -97 -178 -186 -25 -67 -24 -92 6 -129 36
-42 83 -56 129 -37 29 12 42 27 68 81 45 96 101 118 167 66 l24 -18 -64 -53
c-154 -127 -196 -186 -187 -264 3 -28 0 -37 -19 -45 -26 -12 -48 -52 -58 -103
-6 -31 -3 -41 18 -62 30 -30 96 -51 131 -42 50 12 85 126 53 170 -12 16 -9 26
22 73 32 49 47 60 133 104 108 54 144 91 164 169 23 87 -11 163 -102 226 -28
19 -72 41 -99 49 -60 18 -158 19 -208 1z m182 -17 c28 -6 77 -28 109 -49 124
-80 137 -209 29 -306 -27 -24 -54 -44 -59 -44 -6 0 -38 -13 -72 -29 -51 -25
-66 -39 -94 -85 -18 -31 -36 -56 -39 -56 -3 0 -20 7 -39 16 -41 19 -44 47 -14
110 20 40 71 93 178 182 29 24 52 51 52 62 0 32 -64 63 -116 57 -56 -6 -75
-23 -111 -97 -41 -87 -99 -105 -155 -50 -26 27 -29 35 -23 68 10 55 54 130 99
168 67 57 153 75 255 53z m-154 -594 c53 -22 62 -66 26 -134 -14 -25 -55 -28
-106 -7 -32 14 -35 19 -35 55 0 28 8 48 26 70 29 35 40 37 89 16z"/>
<path d="M5773 5943 c9 -2 23 -2 30 0 6 3 -1 5 -18 5 -16 0 -22 -2 -12 -5z"/>
<path d="M5300 5647 c-30 -4 -98 -12 -150 -17 -88 -8 -84 -8 55 -5 83 2 164 8
180 13 l30 9 -30 4 c-16 3 -55 1 -85 -4z"/>
<path d="M1460 5575 c-79 -15 -195 -67 -292 -132 -94 -63 -274 -247 -345 -353
-99 -149 -128 -223 -142 -360 -14 -130 0 -211 56 -327 21 -43 24 -61 19 -105
-3 -29 -12 -145 -20 -258 -8 -113 -17 -239 -20 -280 -10 -149 -18 -210 -27
-216 -5 -3 -7 -10 -3 -15 8 -13 -16 -208 -28 -232 -18 -34 -48 14 -83 133 -13
46 -15 96 -12 315 3 156 12 316 22 399 11 92 13 142 7 148 -15 15 -34 0 -24
-20 10 -20 -3 -200 -22 -292 l-13 -65 -22 83 c-12 46 -35 112 -52 148 -16 36
-29 71 -29 78 0 6 -9 17 -21 24 -28 18 -78 131 -88 200 -6 40 -9 47 -10 24 -2
-59 -31 -36 -72 58 -44 100 -47 139 -24 361 8 79 17 181 20 227 3 52 13 100
25 127 11 24 20 54 20 67 0 13 7 56 15 97 19 88 18 80 16 111 -2 25 -2 25 -11
3 -5 -13 -17 -23 -27 -23 -13 0 -15 -2 -5 -8 10 -7 10 -15 1 -38 -6 -16 -22
-101 -35 -188 -12 -87 -28 -164 -33 -169 -6 -6 -11 -27 -11 -46 0 -55 -42
-297 -54 -308 -3 -3 -16 7 -28 23 -12 16 -42 49 -65 74 -34 36 -43 41 -43 25
0 -11 26 -48 58 -83 41 -44 62 -78 71 -110 7 -26 21 -69 32 -96 22 -57 24 -76
6 -76 -18 0 -91 70 -107 103 -12 25 -16 26 -26 13 -14 -20 -6 -69 11 -62 7 2
26 -8 42 -23 16 -15 52 -43 80 -64 27 -20 68 -56 91 -81 48 -53 149 -206 158
-241 3 -13 12 -29 20 -36 8 -6 14 -19 14 -28 0 -9 4 -21 10 -27 22 -22 47
-181 49 -309 1 -71 6 -157 11 -190 10 -63 7 -196 -4 -214 -4 -6 -15 -11 -24
-11 -13 0 -13 -2 4 -15 10 -8 30 -15 43 -15 18 0 22 4 16 18 -15 34 -17 62 -6
62 6 0 11 -7 11 -16 0 -9 14 -48 31 -87 36 -80 47 -141 30 -152 -34 -20 -99
45 -102 102 0 10 -3 13 -6 6 -9 -23 -31 -14 -59 22 -14 19 -30 35 -35 35 -4 0
-45 39 -91 87 -46 48 -118 123 -160 167 -43 44 -78 84 -78 88 0 5 -6 8 -12 8
-7 0 -28 14 -45 31 l-33 30 0 -53 1 -53 65 -40 c36 -22 84 -62 107 -90 23 -27
71 -80 107 -118 36 -38 67 -76 68 -84 2 -8 9 -12 16 -10 19 8 104 -85 120
-129 9 -27 20 -40 34 -42 26 -4 84 -74 102 -122 8 -24 13 -145 17 -395 5 -417
8 -405 -73 -387 -27 6 -66 14 -88 17 -26 4 -40 12 -43 25 -3 10 -12 21 -21 25
-14 5 -15 4 -5 -6 7 -7 13 -20 13 -29 0 -27 60 -63 124 -74 l61 -11 3 -63 c2
-36 -1 -61 -6 -58 -5 3 -34 9 -65 14 l-57 9 0 -56 c1 -55 1 -56 16 -28 16 29
43 35 89 17 40 -15 31 -52 -13 -55 -18 -2 -35 -5 -38 -8 -3 -2 -7 -133 -10
-290 -5 -251 -4 -289 10 -309 33 -46 11 -156 -30 -150 -14 2 -16 1 -5 -6 7 -6
10 -15 7 -21 -4 -6 -2 -11 3 -11 16 0 13 -96 -3 -133 -7 -18 -23 -57 -35 -88
-22 -55 -77 -120 -114 -132 -9 -4 -23 -19 -29 -34 -7 -15 -18 -36 -26 -45 -13
-16 -13 -18 -1 -18 8 0 21 6 28 13 6 6 35 13 64 13 29 1 67 5 86 9 l34 8 -7
-42 -6 -41 82 6 c47 4 90 13 99 20 20 18 48 18 92 -1 63 -26 137 -16 117 15
-14 22 -12 30 8 30 25 0 64 -29 56 -42 -4 -6 -2 -8 4 -4 6 3 13 2 17 -4 8 -13
102 -13 111 1 3 6 -7 25 -23 42 -75 81 -102 140 -139 292 -46 190 -47 194 -34
210 7 8 15 13 19 11 3 -2 15 0 26 5 15 6 16 8 4 8 -23 1 -27 17 -25 91 2 38
-2 74 -11 89 -17 35 -18 61 0 39 7 -10 35 -19 68 -23 l56 -7 17 42 c12 31 17
73 17 154 0 105 12 166 32 166 9 0 3 -236 -9 -437 -4 -71 -9 -93 -20 -93 -8 0
-14 -6 -14 -13 0 -8 -14 -11 -45 -9 -30 3 -45 0 -45 -8 0 -8 10 -9 28 -5 16 3
50 1 77 -5 26 -6 50 -9 52 -6 2 2 6 48 8 103 16 370 28 599 31 602 2 3 42 7
89 9 l85 5 0 -33 c0 -26 3 -30 13 -21 8 6 14 26 15 45 2 43 -13 47 -115 34
-43 -5 -94 -7 -113 -3 -76 13 -147 25 -185 31 -22 3 -44 9 -48 14 -14 13 -18
65 -8 92 9 24 11 25 68 16 32 -4 107 -15 166 -23 153 -21 296 -44 337 -55 48
-12 180 -15 181 -4 0 10 -48 20 -251 53 -69 12 -147 26 -175 31 -41 9 -242 38
-294 42 -8 1 -23 8 -33 17 -16 14 -18 36 -18 241 0 124 -4 282 -10 352 -10
131 -3 207 24 278 8 19 24 70 37 113 12 43 29 83 36 89 7 6 13 18 13 27 0 24
54 132 83 167 15 18 27 39 27 48 0 9 6 27 14 39 8 12 24 63 36 112 12 50 27
100 34 112 18 35 126 143 143 143 8 0 17 9 20 20 3 11 6 20 7 20 1 0 40 -14
86 -31 138 -50 234 -69 350 -69 170 0 311 42 479 143 200 120 352 270 415 407
78 172 48 433 -75 658 -123 224 -210 313 -432 441 -106 61 -192 97 -273 116
-96 22 -332 28 -424 10z m417 -46 c160 -40 364 -153 486 -268 105 -100 217
-280 265 -431 47 -146 56 -304 22 -411 -48 -155 -200 -315 -425 -448 -257
-152 -503 -172 -795 -64 -328 121 -605 356 -688 582 -19 54 -24 85 -23 171 0
92 4 116 31 194 52 147 163 307 317 458 138 135 272 209 423 234 96 16 291 8
387 -17z m-1066 -1251 c6 -13 21 -33 32 -46 16 -17 18 -25 9 -34 -7 -7 -12
-23 -12 -36 0 -13 -4 -21 -9 -18 -4 3 -7 18 -5 33 2 16 1 19 -2 9 -5 -15 -8
-16 -15 -5 -6 10 -10 4 -16 -21 l-7 -35 -6 35 c-7 48 0 140 11 140 4 0 14 -10
20 -22z m126 -129 c32 -28 82 -67 110 -88 34 -23 53 -43 53 -56 0 -33 -19
-181 -40 -308 -20 -121 -28 -142 -114 -302 -109 -203 -128 -235 -138 -235 -7
0 -9 30 -4 93 3 50 9 180 12 287 5 140 10 197 19 202 18 11 35 329 22 418 -2
14 -2 19 0 12 3 -7 8 -10 13 -7 5 3 7 12 3 20 -9 24 3 18 64 -36z m301 -260
c-61 -54 -65 -53 -47 16 18 68 15 67 54 43 l37 -21 -44 -38z m-282 -1978 c16
-6 53 -12 83 -15 54 -5 75 -19 66 -44 -3 -8 -5 -30 -5 -49 0 -20 -3 -33 -7
-30 -3 4 -12 2 -20 -4 -10 -9 -13 -5 -13 19 0 40 -24 53 -104 57 l-61 4 -3 35
c-4 40 8 45 64 27z m42 -282 l-3 -134 -29 -3 -29 -4 6 84 c4 46 7 104 7 130 0
48 24 88 42 70 5 -5 7 -69 6 -143z m-361 4 c-3 -10 -5 -2 -5 17 0 19 2 27 5
18 2 -10 2 -26 0 -35z m-16 -188 c-6 -35 -9 -41 -10 -20 -1 30 9 78 15 73 2
-2 -1 -26 -5 -53z m-15 -147 c-4 -35 -9 -89 -12 -121 -3 -32 -9 -68 -14 -80
-8 -21 -9 -21 -9 4 -1 24 14 155 25 227 9 57 17 34 10 -30z m-49 -390 c-3 -7
-5 -2 -5 12 0 14 2 19 5 13 2 -7 2 -19 0 -25z"/>
<path d="M1588 5179 c-89 -86 -159 -141 -382 -294 -123 -85 -166 -122 -166
-145 0 -12 20 -30 55 -50 66 -38 126 -107 221 -255 185 -288 181 -283 248
-271 20 4 70 32 113 65 l78 57 148 -43 c81 -24 175 -54 209 -68 34 -14 66 -21
70 -17 5 5 22 58 37 118 39 148 116 356 157 427 19 32 34 61 34 65 0 25 -320
196 -349 187 -11 -3 -28 12 -53 48 -20 28 -74 92 -119 141 -81 86 -141 126
-190 126 -10 0 -60 -41 -111 -91z m174 31 c-1 -6 2 -8 8 -5 14 9 52 -24 43
-38 -3 -5 -2 -7 4 -4 11 7 45 -28 36 -37 -4 -3 0 -6 9 -6 8 0 23 -10 34 -22
19 -22 19 -23 -1 -9 -11 8 1 -5 26 -30 25 -24 60 -65 77 -90 l33 -45 -111
-240 c-164 -354 -167 -359 -232 -412 -134 -109 -167 -108 -235 7 -14 25 -61
98 -105 163 -81 122 -92 144 -58 113 11 -10 20 -25 20 -33 0 -9 3 -12 7 -9 6
7 15 -6 49 -70 10 -18 21 -33 26 -33 9 0 -16 50 -52 100 -38 54 -102 120 -111
114 -4 -2 -15 6 -24 19 -9 14 -43 41 -75 61 -33 21 -60 41 -60 45 0 5 82 65
183 134 220 151 237 165 354 278 l91 89 34 -15 c18 -8 32 -19 30 -25z m471
-363 c59 -32 107 -60 107 -63 0 -3 -13 -24 -29 -47 -35 -52 -58 -97 -77 -151
-22 -61 -1 -31 32 48 30 71 86 146 100 133 4 -4 -8 -40 -28 -80 -66 -133 -158
-412 -158 -479 0 -25 -23 -23 -125 16 -49 18 -134 44 -187 57 -79 18 -95 25
-86 36 6 8 20 11 32 8 144 -38 270 -77 299 -92 40 -20 54 -4 62 65 6 52 37
190 51 225 3 9 -6 19 -25 27 -37 15 -38 20 -6 88 13 28 22 52 19 52 -8 0 -54
-103 -54 -121 0 -9 11 -21 25 -27 14 -6 25 -15 25 -20 0 -4 -11 -52 -25 -106
-14 -54 -25 -109 -25 -122 0 -30 -17 -40 -38 -21 -9 8 -66 28 -127 45 -129 35
-187 47 -165 32 12 -8 9 -10 -12 -10 -18 0 -28 5 -28 15 0 8 4 15 9 15 4 0 30
51 56 113 52 123 117 263 172 373 l36 72 31 -12 c17 -6 80 -37 139 -69z m-978
-256 c-6 -5 -25 10 -25 20 0 5 6 4 14 -3 8 -7 12 -15 11 -17z m728 -288 c27
-8 47 -16 45 -18 -6 -6 -148 30 -148 38 0 8 33 2 103 -20z m113 -39 c19 -9 33
-18 31 -20 -2 -3 -24 5 -48 16 -24 11 -38 20 -31 20 8 0 29 -7 48 -16z"/>
<path d="M1397 4393 c-7 -11 16 -37 25 -27 3 3 8 -6 12 -19 3 -14 12 -27 20
-30 10 -4 9 5 -6 33 -12 22 -25 37 -29 35 -4 -3 -9 0 -11 7 -3 8 -6 9 -11 1z"/>
<path d="M1483 4288 c1 -15 6 -23 11 -18 4 4 4 16 -2 26 -9 16 -10 14 -9 -8z"/>
<path d="M2043 4842 c-59 -122 -93 -205 -122 -297 -18 -55 -37 -109 -43 -121
-5 -12 -8 -32 -6 -45 3 -16 17 17 42 96 48 152 70 211 115 308 38 82 51 90 92
59 35 -27 140 -84 145 -79 3 2 -8 13 -23 23 -25 17 -175 105 -177 104 -1 -1
-11 -22 -23 -48z"/>
<path d="M2090 4802 c0 -5 7 -13 16 -16 10 -4 14 -1 12 6 -5 15 -28 23 -28 10z"/>
<path d="M2180 4751 c0 -6 4 -13 10 -16 6 -3 7 1 4 9 -7 18 -14 21 -14 7z"/>
<path d="M2217 4713 c3 -7 9 -10 14 -7 14 8 11 21 -5 21 -8 0 -12 -6 -9 -14z"/>
<path d="M2046 4705 c-3 -9 -6 -22 -5 -28 0 -7 5 -1 10 12 5 13 8 26 5 28 -2
2 -6 -3 -10 -12z"/>
<path d="M2083 4604 c-3 -8 2 -23 11 -32 15 -15 16 -15 16 0 0 9 3 25 6 35 6
16 5 16 -10 -2 -15 -17 -17 -17 -12 -2 7 21 -2 23 -11 1z"/>
<path d="M2111 4459 c-7 -22 -11 -43 -8 -45 2 -2 9 14 16 37 7 22 11 43 8 45
-2 2 -9 -14 -16 -37z"/>
<path d="M2030 4486 c0 -3 9 -10 20 -16 11 -6 20 -8 20 -6 0 3 -9 10 -20 16
-11 6 -20 8 -20 6z"/>
<path d="M1957 4438 c-8 -27 8 -47 52 -65 48 -20 49 -10 1 12 -40 18 -44 24
-41 58 3 24 -6 21 -12 -5z"/>
<path d="M2026 4435 c4 -8 10 -15 15 -15 5 0 9 7 9 15 0 8 -7 15 -15 15 -9 0
-12 -6 -9 -15z"/>
<path d="M2070 4360 c-13 -8 -12 -10 3 -10 9 0 17 5 17 10 0 12 -1 12 -20 0z"/>
<path d="M50 5556 c0 -2 9 -6 20 -9 11 -3 18 -1 14 4 -5 9 -34 13 -34 5z"/>
<path d="M55 5113 c11 -3 41 -11 67 -18 26 -6 45 -8 43 -4 -5 8 -98 30 -118
28 -7 -1 -3 -4 8 -6z"/>
<path d="M5975 5040 c-40 -8 -119 -46 -135 -65 -7 -8 -10 -15 -7 -15 12 0 63
25 99 48 31 20 45 23 83 18 24 -4 51 -14 59 -22 8 -8 26 -14 40 -14 29 0 111
-74 145 -130 20 -34 21 -34 21 -9 0 16 -12 38 -32 57 -18 17 -46 45 -63 62
-16 16 -38 30 -48 30 -10 0 -36 9 -57 20 -22 11 -40 18 -40 15 0 -3 -8 -2 -17
3 -10 4 -31 5 -48 2z"/>
<path d="M505 4990 c3 -5 14 -10 23 -10 15 0 15 2 2 10 -20 13 -33 13 -25 0z"/>
<path d="M5815 4939 c-4 -6 -5 -12 -2 -15 2 -3 7 2 10 11 7 17 1 20 -8 4z"/>
<path d="M6324 4859 c-19 -22 -19 -22 3 -10 12 6 31 11 42 11 12 0 21 5 21 10
0 18 -47 10 -66 -11z"/>
<path d="M5762 4844 c-7 -8 -21 -14 -31 -14 -28 0 -54 -48 -53 -94 1 -21 -2
-44 -6 -50 -5 -6 -14 -30 -21 -53 -6 -24 -16 -43 -21 -43 -6 0 -10 -6 -10 -12
0 -7 13 1 29 17 16 17 27 31 26 33 -2 2 2 20 7 40 5 20 9 52 8 70 0 18 6 40
15 48 8 9 13 20 10 25 -4 5 0 7 7 4 14 -5 66 30 58 38 -3 3 -11 -1 -18 -9z"/>
<path d="M3835 4760 c-3 -5 -3 -19 0 -32 l6 -23 -144 -3 c-114 -2 -154 1 -188
13 -58 22 -89 29 -89 21 0 -14 23 -52 48 -78 26 -29 17 -37 -20 -17 -31 16
-45 -5 -17 -24 17 -12 19 -17 8 -21 -41 -14 -134 -27 -214 -30 -72 -2 -91 -6
-93 -18 -4 -19 52 -85 79 -93 10 -4 19 -10 19 -15 0 -15 -113 -43 -189 -46
-40 -2 -75 -5 -78 -7 -7 -8 60 -44 93 -51 22 -5 46 0 85 19 30 13 62 25 72 25
10 0 29 7 43 16 l25 17 -17 -29 c-11 -20 -35 -36 -77 -53 -50 -19 -70 -22
-126 -16 -62 6 -65 5 -44 -9 17 -13 102 -36 131 -36 20 0 -103 -107 -150 -131
-32 -16 -58 -34 -58 -39 0 -16 59 -12 132 8 l66 19 -39 -81 c-36 -74 -48 -116
-33 -116 4 0 43 35 87 77 46 43 83 71 85 65 2 -7 -3 -23 -11 -35 -19 -31 -80
-214 -75 -229 3 -7 21 13 40 44 59 91 63 87 43 -43 -7 -46 6 -40 46 21 21 33
43 60 47 60 5 0 12 -23 15 -52 4 -32 18 -71 37 -101 16 -26 30 -52 30 -57 0
-5 -14 -51 -31 -102 -38 -112 -37 -183 5 -274 48 -104 113 -166 254 -239 49
-25 56 -26 110 -16 31 5 66 13 77 16 16 4 24 -3 39 -35 11 -22 17 -42 15 -44
-2 -2 -44 -22 -94 -45 -99 -46 -202 -119 -234 -167 -43 -62 -51 -168 -20 -238
10 -21 7 -28 -24 -58 -43 -42 -69 -93 -118 -230 -21 -59 -52 -137 -70 -175
-112 -242 -185 -411 -214 -494 -19 -52 -45 -115 -59 -140 -14 -24 -26 -52 -26
-61 0 -13 -8 -18 -30 -18 -39 0 -345 192 -321 201 9 4 32 23 51 43 29 31 33
39 23 55 -7 10 -9 28 -6 39 4 17 1 20 -16 15 -25 -6 -34 -19 -39 -53 -5 -41
-36 -85 -57 -82 -10 2 -57 26 -105 53 -48 28 -103 52 -122 56 -46 7 -92 -15
-151 -72 -25 -25 -52 -45 -60 -45 -19 0 -45 64 -53 133 -5 47 -11 61 -33 76
-48 33 -54 35 -42 15 14 -23 60 -204 53 -204 -3 0 -20 5 -39 12 -29 11 -35 10
-53 -10 -11 -11 -20 -26 -20 -32 0 -5 -4 -10 -10 -10 -5 0 -17 -12 -27 -27
-15 -22 -19 -58 -24 -202 -3 -97 -4 -178 -1 -181 2 -3 20 -5 40 -5 34 0 37 -2
40 -31 3 -28 8 -33 39 -39 19 -3 37 -4 40 -2 9 10 8 283 -1 299 -9 15 -12 15
-26 3 -9 -8 -25 -12 -38 -8 -20 5 -26 20 -25 69 0 6 -7 11 -16 10 -11 -1 -16
7 -16 24 0 21 5 25 30 25 17 0 32 2 35 5 3 3 14 11 25 17 52 33 75 43 75 33 0
-5 -4 -10 -9 -10 -13 0 -101 -70 -101 -81 0 -19 48 -54 98 -72 77 -28 86 -42
82 -139 -2 -46 -4 -99 -5 -118 -1 -35 -1 -35 -43 -33 -30 1 -42 -2 -39 -10 2
-6 19 -13 38 -14 74 -4 99 -14 99 -39 0 -20 5 -24 29 -24 26 0 29 3 34 47 3
27 3 90 -1 140 -7 90 -7 93 13 87 27 -8 222 -106 272 -137 9 -6 7 -18 -8 -47
-13 -25 -18 -47 -14 -61 11 -34 57 -95 84 -110 13 -8 38 -41 56 -74 30 -54 39
-62 93 -85 32 -14 82 -42 109 -63 67 -49 138 -80 166 -72 12 4 39 20 59 36 33
26 44 29 113 29 74 0 76 -1 70 -22 -4 -13 -28 -90 -55 -173 -86 -265 -86 -265
-9 -347 45 -48 49 -57 49 -100 0 -41 3 -48 20 -48 16 0 20 7 20 34 0 22 6 36
16 40 20 8 43 -20 44 -51 l0 -23 620 0 620 0 5 23 c2 12 6 44 7 72 3 43 6 50
28 55 27 6 48 51 49 103 1 34 6 34 42 -3 16 -16 47 -34 67 -40 87 -26 447 -35
555 -14 44 9 83 73 128 213 83 259 112 521 92 821 -8 124 -5 211 10 210 27 -1
29 2 7 13 -23 11 -26 20 -31 97 -3 47 -11 103 -17 125 -19 67 -35 259 -23 263
6 2 11 8 11 13 0 6 -4 7 -10 4 -12 -7 -18 18 -29 120 -19 178 -46 251 -128
351 -18 23 -33 47 -33 54 0 10 -3 10 -14 1 -11 -9 -26 -6 -67 14 -53 25 -155
55 -261 75 l-57 11 40 63 c22 36 44 86 50 118 10 49 9 59 -9 94 -21 40 -62 83
-144 147 -35 28 -51 49 -63 87 -25 74 -62 105 -161 136 -143 45 -285 25 -377
-52 -18 -15 -35 -34 -38 -43 -5 -12 -9 -9 -21 14 -19 37 -59 205 -52 217 3 4
16 5 29 2 22 -5 31 4 91 96 36 56 78 130 93 164 16 33 48 90 73 126 55 78 122
209 138 269 10 38 9 46 -8 65 -11 11 -27 35 -37 51 -13 22 -8 19 20 -12 37
-44 65 -55 65 -28 0 8 -25 44 -56 81 -54 63 -55 66 -28 62 15 -1 29 2 31 8 4
13 -130 84 -158 84 -17 0 -18 3 -8 23 6 12 30 41 52 65 39 40 40 42 17 42 -34
-1 -109 -36 -142 -67 l-27 -25 -6 38 c-14 85 -65 204 -87 204 -10 0 -9 -23 8
-124 l7 -40 -24 23 c-31 30 -114 86 -209 142 -41 24 -102 70 -136 102 -65 60
-69 63 -79 47z m61 -81 c19 -22 19 -22 -3 -10 -24 12 -39 31 -25 31 5 0 17
-10 28 -21z m-33 -49 l32 -33 -40 27 c-27 18 -53 26 -82 26 -23 0 -45 5 -49
11 -5 9 9 10 50 7 49 -4 62 -10 89 -38z m-365 -65 c-3 -3 -38 -15 -78 -26 -90
-25 -230 -37 -230 -20 0 6 19 11 48 11 26 1 88 9 137 19 94 20 132 25 123 16z
m97 -65 c-3 -5 -13 -10 -21 -10 -8 0 -14 -4 -14 -9 0 -10 -78 -26 -86 -18 -2
2 21 13 53 25 69 24 76 25 68 12z m-170 -60 c-11 -5 -31 -9 -45 -9 -23 0 -23
1 -5 9 11 5 31 9 45 9 23 0 23 -1 5 -9z m-185 -130 c0 -13 -71 -92 -78 -85 -3
2 13 25 34 49 44 50 44 50 44 36z m771 -91 l57 -11 -21 -37 c-12 -20 -25 -39
-30 -42 -5 -4 -2 -11 7 -16 11 -6 18 -26 21 -56 10 -123 18 -163 41 -190 22
-26 54 -112 54 -146 0 -9 4 -22 9 -30 7 -11 15 -3 31 30 44 88 108 127 166
100 30 -13 64 -67 64 -102 0 -50 -31 -118 -70 -153 -42 -38 -101 -56 -124 -37
-15 12 -46 5 -46 -11 0 -5 5 -6 12 -2 20 13 2 -100 -26 -155 -53 -103 -155
-186 -306 -248 -123 -50 -147 -51 -227 -7 -196 110 -277 275 -223 457 14 47
28 77 36 77 19 0 18 3 -11 60 -27 54 -49 221 -25 190 10 -13 12 -13 17 -1 9
23 73 90 92 96 16 5 45 64 37 73 -10 10 -52 -13 -94 -52 -51 -46 -51 -35 1 45
64 98 144 151 253 166 l47 6 -27 -36 c-23 -30 -25 -37 -11 -37 9 0 35 11 58
24 119 68 116 68 238 45z m116 -67 c-10 -11 -17 -35 -17 -57 0 -57 -21 -165
-32 -165 -5 0 -7 8 -4 18 2 9 8 56 11 104 6 66 12 92 27 108 11 12 23 19 26
16 3 -3 -2 -14 -11 -24z m-943 -37 c-14 -19 -28 -35 -31 -35 -6 0 16 37 33 54
27 27 26 17 -2 -19z m1006 -817 c0 -31 61 -212 85 -254 l24 -41 -40 -39 c-89
-86 -162 -206 -203 -331 -20 -61 -58 -97 -117 -113 -104 -28 -141 11 -71 75
22 19 48 52 58 73 25 53 22 185 -6 282 -35 120 -35 127 -9 141 80 42 259 207
259 238 0 14 1 14 10 1 5 -8 10 -23 10 -32z m547 -124 c77 -39 77 -39 98 -100
17 -52 28 -67 70 -99 134 -101 160 -146 131 -231 -19 -57 -74 -144 -90 -144
-6 0 -35 27 -64 60 -84 95 -146 124 -265 122 -130 -1 -294 -59 -397 -140 -112
-88 -160 -146 -160 -194 0 -18 -2 -20 -9 -8 -30 46 71 311 164 429 67 85 179
173 161 126 -3 -10 20 -2 65 22 78 42 129 84 128 105 0 10 -2 10 -6 1 -2 -7
-10 -13 -16 -13 -7 0 -29 -13 -50 -29 -29 -22 -46 -28 -80 -26 -23 2 -48 -2
-54 -7 -18 -15 -40 -3 -57 31 -16 30 -16 30 30 67 68 56 131 75 236 71 79 -3
95 -7 165 -43z m-317 -138 c0 -2 -7 -9 -15 -16 -12 -10 -15 -10 -15 4 0 9 7
16 15 16 8 0 15 -2 15 -4z m-523 -112 c3 -9 0 -20 -8 -25 -11 -7 -11 -9 4 -9
14 0 17 -10 17 -64 l0 -64 -80 -92 c-46 -54 -86 -111 -97 -138 -9 -26 -21 -50
-26 -53 -5 -3 -8 -10 -8 -15 1 -5 -1 -28 -5 -52 -7 -48 -2 -51 -69 43 -54 77
-68 114 -72 190 -5 82 9 111 79 168 52 43 211 127 239 127 11 0 22 -7 26 -16z
m831 -218 c6 -13 13 -45 17 -72 4 -27 9 -60 12 -74 3 -14 7 -171 10 -349 8
-486 -16 -724 -114 -1121 -74 -301 -97 -347 -182 -369 -141 -37 -580 -38
-1030 -3 l-214 17 89 91 c50 51 127 115 174 147 148 97 612 311 629 290 4 -4
13 -28 20 -53 13 -43 51 -105 51 -81 0 6 -7 28 -16 49 -34 80 -28 265 17 527
48 278 148 552 294 800 54 91 158 205 189 205 9 0 16 5 16 10 0 19 27 10 38
-14z m-833 -45 c-3 -6 -11 -11 -17 -11 -6 0 -6 6 2 15 14 17 26 13 15 -4z
m955 -57 c0 -2 -12 1 -27 7 -32 12 -43 26 -43 53 0 16 7 12 35 -18 19 -21 35
-40 35 -42z m-532 59 c-2 -5 -9 -19 -15 -33 -7 -14 -35 -74 -63 -133 -78 -167
-90 -221 -92 -432 -2 -99 1 -225 6 -280 5 -55 6 -97 2 -94 -15 14 -36 199 -36
314 0 286 65 543 160 634 32 31 45 38 38 24z m-518 -135 c0 -6 7 -20 17 -30
23 -26 87 -23 152 7 30 14 55 24 57 23 1 -2 -1 -17 -4 -34 -22 -97 -176 -168
-246 -113 -28 22 -34 14 -13 -15 17 -23 85 -31 130 -17 19 7 56 30 81 52 25
23 46 36 46 30 0 -26 32 -21 71 10 l42 33 -6 -29 c-37 -173 -41 -217 -41 -420
1 -176 4 -226 22 -312 12 -55 22 -129 22 -163 0 -59 -1 -61 -22 -53 -41 14
-151 6 -268 -21 -63 -15 -142 -31 -175 -36 -33 -5 -74 -12 -91 -15 -30 -7 -33
-5 -45 31 -18 50 -18 295 -1 419 20 139 50 279 83 381 l30 94 39 -6 c39 -6 40
-6 40 25 0 17 5 31 11 31 6 0 8 8 5 18 -3 9 -2 23 3 31 7 11 10 10 15 -6 7
-21 64 -59 74 -49 3 4 -5 17 -20 29 -33 28 -52 82 -37 108 10 20 29 17 29 -3z
m355 -8 c-15 -30 -55 -59 -55 -41 0 13 50 71 61 71 5 0 3 -13 -6 -30z m745
-71 c0 -11 4 -18 9 -15 4 3 13 -6 20 -20 17 -38 51 -167 46 -172 -3 -3 -5 0
-5 7 0 7 -4 10 -9 6 -13 -7 -31 58 -24 85 3 11 0 20 -6 20 -6 0 -11 11 -11 24
0 13 -4 26 -10 28 -5 2 -14 18 -19 36 -6 20 -6 30 0 27 5 -4 9 -15 9 -26z
m-1400 -84 c-66 -147 -82 -218 -89 -395 l-6 -165 -8 110 c-9 136 4 250 43 360
37 109 61 155 81 155 4 0 -5 -29 -21 -65z m1484 -196 c4 -28 11 -58 16 -67 18
-35 30 -102 24 -128 -4 -16 -3 -25 3 -21 5 3 14 -30 21 -76 10 -72 10 -99 2
-142 -1 -5 -8 23 -16 64 -7 41 -11 78 -8 83 3 5 1 14 -4 21 -5 7 -13 35 -16
62 -4 28 -13 75 -21 105 -18 77 -26 150 -16 150 5 0 11 -23 15 -51z m-1629
-186 c-6 -61 5 -221 21 -314 l6 -37 -43 5 c-38 4 -51 0 -99 -32 -30 -21 -67
-49 -82 -63 -15 -14 -30 -23 -33 -21 -6 7 34 117 81 222 69 155 143 307 149
307 3 0 3 -30 0 -67z m-870 -366 c74 -41 225 -134 324 -199 41 -27 87 -56 103
-64 33 -17 37 -34 6 -34 -12 0 -19 -2 -16 -5 3 -3 -15 -25 -39 -50 l-44 -44
-62 38 c-73 44 -208 120 -339 190 -35 19 -76 44 -93 56 -16 12 -39 25 -49 29
-19 7 -19 6 -1 -14 10 -11 22 -20 27 -20 5 0 24 -11 41 -24 18 -13 68 -42 112
-65 138 -70 345 -195 345 -208 0 -2 -6 -11 -14 -18 -11 -12 -22 -9 -72 17 -33
17 -70 39 -84 48 -14 10 -54 32 -90 50 -36 18 -78 42 -95 54 -16 11 -61 35
-100 52 -160 71 -175 79 -175 95 0 9 12 22 28 29 15 8 53 38 84 67 50 47 61
53 100 53 30 0 62 -11 103 -33z m906 -30 c30 -20 84 -96 74 -105 -2 -2 -28 10
-58 27 -55 32 -138 43 -152 21 -4 -6 7 -10 26 -10 56 0 110 -23 158 -66 37
-34 43 -44 29 -49 -10 -4 -32 4 -57 20 -36 24 -131 47 -131 32 0 -4 18 -11 40
-17 22 -6 38 -15 35 -19 -2 -5 10 -12 28 -16 28 -6 30 -8 12 -15 -46 -19 -258
-52 -301 -47 -25 2 -47 7 -50 10 -15 15 49 106 107 153 140 112 176 124 240
81z m2025 -3 c-3 -9 -6 -32 -6 -52 -1 -35 -2 -36 -15 -18 -15 20 -20 67 -8 79
13 14 35 7 29 -9z m59 -72 c-15 -16 -16 -15 -4 12 7 15 15 23 17 16 3 -7 -3
-19 -13 -28z m-3269 -67 c29 -19 59 -35 67 -35 8 0 25 -9 38 -20 l24 -20 -40
17 c-22 9 -53 16 -70 15 -25 -1 -27 0 -10 7 18 8 15 11 -25 29 -47 22 -73 19
-43 -4 16 -12 14 -12 -14 -3 -38 13 -40 17 -15 35 24 19 29 18 88 -21z m1877
24 l37 -10 0 -77 0 -78 -37 -13 c-83 -29 -325 -137 -443 -197 -162 -83 -272
-166 -394 -299 -140 -151 -162 -159 -258 -97 -62 40 -79 62 -49 62 27 0 51 10
51 22 0 7 -26 8 -75 4 -77 -7 -107 0 -132 33 -22 29 -15 50 24 66 38 16 83 52
83 66 0 4 -27 -7 -61 -24 l-60 -31 -35 19 c-48 26 -114 100 -114 128 0 30 45
75 53 53 3 -8 -1 -17 -9 -20 -25 -10 -16 -29 12 -23 14 2 31 -1 39 -9 11 -11
24 -9 81 17 99 45 187 137 94 99 -25 -11 -34 -10 -56 5 l-27 17 39 34 c103 91
96 87 223 95 64 4 157 14 206 24 125 23 578 115 645 130 70 16 115 18 163 4z
m-1658 -136 c11 -7 14 -13 7 -13 -14 0 -92 38 -92 45 0 6 63 -17 85 -32z
m-364 -25 c5 -39 -4 -154 -11 -162 -6 -5 -14 -5 -22 1 -7 6 -22 13 -33 15 -17
3 -20 12 -21 68 -1 36 3 71 9 78 5 6 25 12 43 12 20 0 35 -5 35 -12z m399 -11
c0 -5 5 -5 12 -1 7 4 8 3 4 -4 -4 -7 -18 -10 -34 -6 -40 10 -48 21 -13 20 17
-1 31 -5 31 -9z m117 -49 c7 -1 10 -4 8 -8 -6 -10 -54 0 -62 13 -4 7 2 8 18 3
13 -4 29 -8 36 -8z m119 -74 c80 -32 94 -39 94 -46 0 -9 -8 -10 -37 -2 -13 4
-20 11 -16 17 3 5 1 7 -4 4 -12 -8 -78 17 -88 33 -9 14 6 12 51 -6z m140 -29
c10 -8 14 -15 8 -15 -5 0 -19 7 -30 15 -10 8 -14 15 -8 15 5 0 19 -7 30 -15z
m804 -476 c206 -18 645 -17 751 2 l87 16 22 -46 c35 -73 115 -203 165 -266 35
-46 45 -67 45 -96 0 -55 -15 -86 -52 -105 -28 -15 -61 -16 -278 -11 -225 4
-791 -12 -968 -29 l-72 -7 -40 42 c-46 48 -55 74 -43 122 14 54 60 62 343 54
129 -3 273 -8 320 -12 47 -3 82 -3 79 0 -19 22 -173 39 -394 44 -202 4 -247 3
-285 -10 -24 -9 -46 -15 -47 -13 -2 2 1 14 6 27 6 13 26 68 46 122 19 54 46
118 58 143 l22 46 50 -6 c28 -3 111 -11 185 -17z"/>
<path d="M3713 4132 c-13 -2 -23 -8 -23 -13 0 -17 20 -49 31 -49 6 0 7 4 4 10
-18 30 109 -54 159 -104 55 -55 63 -56 40 -2 -6 16 -4 18 14 14 39 -11 35 12
-10 54 -67 62 -156 99 -215 90z"/>
<path d="M3768 3959 c-10 -5 -18 -16 -18 -24 0 -12 6 -12 35 2 33 16 35 16 74
-11 22 -15 44 -42 50 -58 14 -39 14 -109 1 -143 -6 -15 -6 -24 -1 -20 5 3 14
27 20 54 26 123 -76 250 -161 200z"/>
<path d="M3484 3928 c-27 -13 -61 -73 -65 -113 -4 -54 1 -96 10 -90 5 3 12 -3
16 -14 8 -27 35 -35 51 -14 30 40 8 123 -33 123 -31 0 -30 32 2 65 14 14 29
25 33 25 4 -1 18 -23 31 -51 32 -65 39 -154 17 -198 -21 -39 -59 -59 -80 -42
-11 9 -15 8 -19 -3 -8 -20 24 -29 57 -17 30 12 63 61 72 108 9 49 -29 208 -47
197 -6 -3 -9 2 -7 11 4 22 -10 27 -38 13z m-4 -143 c0 -1 -6 -8 -14 -14 -12
-10 -17 -8 -25 7 -9 17 -7 18 14 14 14 -2 25 -6 25 -7z"/>
<path d="M3734 3883 c-4 -14 -3 -48 1 -76 4 -29 8 -59 8 -68 1 -11 10 -16 32
-15 26 1 32 6 44 45 12 38 12 50 0 85 -12 33 -20 41 -47 47 -28 6 -33 4 -38
-18z m36 -13 c0 -11 -4 -20 -9 -20 -14 0 -23 18 -16 30 10 17 25 11 25 -10z"/>
<path d="M4261 3767 c-26 -13 -50 -60 -26 -51 7 3 16 12 19 20 3 8 19 14 36
14 23 0 33 -6 42 -25 6 -14 15 -25 20 -25 11 0 10 7 -4 30 -11 17 -10 22 0 29
11 7 10 10 -3 15 -25 9 -57 7 -84 -7z"/>
<path d="M4232 3687 c-25 -27 -28 -37 -8 -37 7 0 20 10 29 23 15 22 15 22 31
2 20 -26 20 -35 -1 -35 -22 0 -70 -36 -61 -45 3 -4 26 4 50 18 46 26 51 46 21
80 -21 23 -35 22 -61 -6z"/>
<path d="M4337 3636 c-9 -20 -23 -36 -32 -36 -8 0 -15 -5 -15 -10 0 -17 35 6
54 35 10 15 16 31 14 36 -2 6 -11 -6 -21 -25z"/>
<path d="M3500 3546 c0 -15 55 -66 72 -66 11 0 -52 78 -64 79 -5 1 -8 -5 -8
-13z"/>
<path d="M3652 3528 c-19 -19 -14 -29 8 -16 20 13 27 28 12 28 -4 0 -13 -5
-20 -12z"/>
<path d="M3655 3388 c-33 -11 -64 -24 -69 -29 -16 -15 22 -11 53 6 50 26 109
30 131 10 16 -14 20 -15 20 -4 0 43 -44 48 -135 17z"/>
<path d="M4600 2961 c0 -4 39 -11 88 -14 48 -4 128 -18 179 -31 92 -23 109
-20 51 10 -62 32 -318 60 -318 35z"/>
<path d="M2390 1591 c19 -17 76 -52 125 -77 50 -26 92 -51 93 -56 2 -4 10 -8
18 -8 34 0 16 11 -231 150 l-40 22 35 -31z"/>
<path d="M2335 1534 c11 -9 45 -29 75 -45 30 -17 75 -42 100 -56 101 -58 179
-102 248 -143 54 -31 77 -39 85 -31 8 8 7 11 -4 11 -8 0 -35 13 -60 28 -25 16
-56 33 -69 38 -14 5 -102 55 -197 112 -94 56 -178 102 -185 102 -8 -1 -5 -7 7
-16z"/>
<path d="M2200 1512 c0 -4 19 -18 43 -30 23 -11 53 -28 67 -36 14 -8 50 -26
80 -41 64 -30 251 -135 271 -152 21 -17 112 -64 116 -59 6 6 -57 56 -71 56 -6
0 -18 6 -24 13 -7 6 -42 28 -77 47 -127 69 -396 210 -400 210 -3 0 -5 -4 -5
-8z"/>
<path d="M2725 1423 c14 -15 165 -96 165 -89 0 3 -31 23 -69 46 -74 43 -113
60 -96 43z"/>
<path d="M4273 313 c9 -2 25 -2 35 0 9 3 1 5 -18 5 -19 0 -27 -2 -17 -5z"/>
<path d="M4368 303 c63 -8 31 -23 -40 -19 -65 3 -68 3 -23 -4 117 -20 158 -23
151 -12 -3 6 3 12 16 15 13 2 4 5 -19 6 -23 0 -45 6 -48 11 -3 6 -21 9 -38 8
l-32 -1 33 -4z"/>
<path d="M558 4683 c7 -3 16 -2 19 1 4 3 -2 6 -13 5 -11 0 -14 -3 -6 -6z"/>
<path d="M5590 4549 c0 -5 5 -7 10 -4 6 3 10 8 10 11 0 2 -4 4 -10 4 -5 0 -10
-5 -10 -11z"/>
<path d="M5411 4540 c-47 -11 -63 -31 -67 -86 l-4 -49 14 49 c20 70 56 87 139
66 41 -10 51 -10 58 1 11 18 2 26 -13 11 -6 -6 -18 -8 -27 -3 -29 15 -65 19
-100 11z"/>
<path d="M11 4470 c-6 -28 -11 -91 -11 -140 0 -79 4 -96 33 -162 19 -40 40
-94 47 -121 7 -26 17 -50 21 -53 5 -3 9 -12 9 -20 0 -8 15 -48 34 -87 36 -74
60 -133 125 -297 39 -101 77 -170 92 -170 14 0 11 8 -27 83 -20 39 -49 105
-64 146 -16 42 -49 121 -73 177 -25 55 -51 121 -57 145 -7 24 -17 58 -24 74
-7 17 -21 55 -31 85 -10 30 -27 74 -38 97 -21 48 -28 155 -13 241 11 69 -8 71
-23 2z"/>
<path d="M495 4500 c3 -5 25 -15 48 -21 23 -7 48 -17 54 -22 7 -5 21 -6 30 -2
17 6 17 7 -2 18 -21 12 -100 36 -123 37 -7 0 -10 -4 -7 -10z"/>
<path d="M597 4397 c-4 -10 -7 -28 -7 -40 1 -20 2 -20 11 -4 6 10 9 28 7 40
-3 20 -4 20 -11 4z"/>
<path d="M5303 4390 c-38 -9 -95 -55 -111 -90 -6 -14 -16 -44 -22 -67 -6 -23
-19 -48 -30 -56 -23 -16 -50 -76 -50 -112 0 -15 11 -36 25 -50 16 -14 22 -26
15 -30 -19 -12 -10 -59 15 -84 35 -33 45 -17 11 18 -23 24 -25 31 -16 55 8 23
6 32 -16 61 -19 25 -24 40 -19 57 11 33 44 78 59 78 7 0 17 26 24 60 10 48 21
70 51 101 22 22 52 42 70 45 17 4 31 10 31 15 0 5 -1 9 -2 8 -2 -1 -17 -4 -35
-9z"/>
<path d="M5450 4221 c0 -6 4 -13 10 -16 6 -3 7 1 4 9 -7 18 -14 21 -14 7z"/>
<path d="M5510 4120 c6 -11 13 -20 16 -20 2 0 0 9 -6 20 -6 11 -13 20 -16 20
-2 0 0 -9 6 -20z"/>
<path d="M5577 4025 c9 -19 18 -33 21 -31 4 5 -26 66 -33 66 -3 0 3 -16 12
-35z"/>
<path d="M5607 3969 c6 -6 9 -17 6 -25 -2 -7 7 -28 20 -46 14 -18 39 -62 56
-98 17 -36 31 -59 31 -52 0 17 -37 97 -66 144 -13 21 -24 46 -24 57 0 10 -8
22 -17 26 -14 5 -15 3 -6 -6z"/>
<path d="M6072 3955 c0 -16 2 -22 5 -12 2 9 2 23 0 30 -3 6 -5 -1 -5 -18z"/>
<path d="M6073 3889 c4 -15 0 -23 -14 -26 -15 -4 -17 -8 -8 -19 10 -12 14 -11
25 3 16 22 18 63 3 63 -7 0 -9 -9 -6 -21z"/>
<path d="M2400 3869 c-41 -16 -71 -50 -101 -114 -34 -70 -35 -95 -10 -150 40
-88 104 -129 201 -129 161 -1 245 112 190 256 -14 38 -34 68 -58 88 -63 52
-160 73 -222 49z m145 -43 c80 -38 115 -92 115 -178 0 -74 -47 -123 -137 -142
-71 -16 -167 34 -203 104 -26 51 -25 58 9 135 47 104 114 129 216 81z"/>
<path d="M5183 3843 c15 -16 27 -33 27 -39 -1 -5 -14 -25 -30 -44 -35 -40 -38
-60 -9 -60 18 0 19 2 9 15 -14 16 -7 29 39 74 l24 23 -24 19 c-47 38 -66 44
-36 12z"/>
<path d="M6155 3780 c-21 -33 -40 -58 -42 -56 -2 2 -13 26 -23 52 -11 27 -19
44 -20 38 0 -11 61 -212 79 -259 17 -46 78 -162 109 -207 17 -26 32 -51 32
-55 0 -5 13 -24 29 -43 64 -79 64 -81 36 -262 -14 -89 -26 -162 -28 -163 -1
-2 -18 -5 -38 -9 l-37 -7 -23 125 c-15 78 -27 119 -32 111 -4 -8 -1 -38 8 -67
8 -28 15 -80 15 -115 0 -60 -1 -63 -25 -63 -31 0 -86 48 -130 114 -42 64 -207
392 -234 466 -11 30 -36 118 -55 195 -20 76 -41 144 -47 150 -12 11 -13 13 16
-95 20 -72 19 -117 -2 -128 -12 -7 -14 -17 -9 -42 l6 -33 -37 6 -38 6 28 -15
c15 -8 31 -13 36 -10 12 8 46 -33 61 -74 7 -19 29 -66 47 -104 19 -37 32 -70
29 -73 -3 -3 -28 5 -56 19 -73 36 -61 19 19 -27 58 -33 73 -48 94 -90 26 -51
71 -250 61 -266 -7 -11 -45 -11 -63 0 -8 5 -33 1 -65 -12 -69 -27 -153 -33
-199 -13 -28 11 -37 12 -37 2 0 -17 63 -38 103 -35 18 2 38 0 45 -5 6 -4 22 0
34 8 12 9 35 16 50 16 15 0 30 5 33 10 4 7 14 6 28 -2 12 -7 33 -13 46 -13 20
0 27 -10 48 -65 13 -36 37 -93 53 -127 17 -35 30 -66 30 -71 0 -4 7 -17 15
-27 108 -141 120 -161 126 -215 3 -30 6 -152 7 -270 1 -118 6 -297 11 -398 18
-338 -10 -556 -88 -670 -80 -117 -80 -131 -2 -89 54 30 81 34 81 14 0 -8 9
-22 20 -32 20 -18 21 -18 55 15 33 32 36 33 53 17 10 -9 22 -17 25 -17 4 0 7
542 7 1205 l0 1204 -41 45 c-34 37 -109 147 -109 161 0 2 -22 53 -50 113 -58
127 -62 166 -25 237 37 68 25 65 -20 -5z m-375 -333 c0 -16 -4 -26 -10 -22 -5
3 -10 23 -10 43 0 28 3 33 10 22 5 -8 10 -28 10 -43z m312 -625 c10 -7 18 -22
18 -32 0 -22 -34 -44 -55 -36 -17 6 -45 97 -45 145 l0 36 32 -50 c18 -27 41
-56 50 -63z m77 -138 c13 -25 20 -48 17 -51 -3 -4 1 -14 10 -24 18 -20 30 -89
20 -115 -6 -15 -9 -14 -32 7 -15 13 -30 34 -35 46 -4 13 -14 21 -21 18 -8 -3
-23 18 -39 53 -38 82 -45 106 -27 100 8 -3 25 0 38 7 33 18 43 11 69 -41z
m118 -1456 c-3 -7 -5 -2 -5 12 0 14 2 19 5 13 2 -7 2 -19 0 -25z m3 -133 c0
-14 -4 -25 -10 -25 -5 0 -10 11 -10 25 0 14 5 25 10 25 6 0 10 -11 10 -25z"/>
<path d="M1612 3770 c-1 -16 2 -30 8 -30 5 0 10 14 10 30 0 17 -4 30 -8 30 -4
0 -9 -13 -10 -30z"/>
<path d="M1301 3744 c0 -11 3 -14 6 -6 3 7 2 16 -1 19 -3 4 -6 -2 -5 -13z"/>
<path d="M1610 3640 c0 -40 3 -70 7 -66 8 8 6 127 -2 135 -3 2 -5 -29 -5 -69z"/>
<path d="M1301 3674 c0 -11 3 -14 6 -6 3 7 2 16 -1 19 -3 4 -6 -2 -5 -13z"/>
<path d="M5127 3673 c-11 -10 -8 -79 4 -110 13 -36 48 -73 68 -73 10 0 5 10
-16 29 -33 30 -49 79 -41 131 4 29 -1 37 -15 23z"/>
<path d="M5430 3662 c0 -9 29 -25 63 -36 30 -10 18 3 -23 24 -22 11 -40 17
-40 12z"/>
<path d="M1280 3626 c0 -2 7 -6 15 -10 8 -3 15 -1 15 4 0 6 -7 10 -15 10 -8 0
-15 -2 -15 -4z"/>
<path d="M620 3556 c0 -2 7 -7 16 -10 8 -3 12 -2 9 4 -6 10 -25 14 -25 6z"/>
<path d="M1595 3529 c-4 -12 -2 -26 4 -32 8 -8 11 -2 11 21 0 37 -6 41 -15 11z"/>
<path d="M5164 3443 c-15 -21 -32 -41 -36 -44 -9 -6 -4 -87 6 -96 3 -4 6 13 6
36 0 32 8 54 32 87 39 54 32 69 -8 17z"/>
<path d="M2799 3351 c-75 -75 11 -193 107 -147 62 29 70 92 20 142 -44 44 -86
46 -127 5z m110 -27 c12 -15 21 -32 21 -39 0 -21 -40 -65 -59 -65 -30 0 -71
39 -71 67 0 61 71 85 109 37z"/>
<path d="M390 3335 c0 -22 27 -30 46 -14 14 12 14 14 -3 20 -29 12 -43 10 -43
-6z"/>
<path d="M1440 3320 c0 -5 4 -10 9 -10 6 0 13 5 16 10 3 6 -1 10 -9 10 -9 0
-16 -4 -16 -10z"/>
<path d="M5135 3232 c3 -19 16 -47 30 -64 14 -16 25 -33 25 -38 0 -4 20 -20
44 -34 25 -15 48 -38 56 -56 7 -18 22 -33 36 -36 19 -5 24 -13 24 -36 0 -36
34 -70 91 -88 26 -9 44 -22 50 -37 7 -20 15 -23 63 -23 53 0 73 10 61 29 -3 6
-20 4 -41 -5 -45 -19 -78 -11 -64 16 8 14 5 19 -13 23 -39 9 -97 33 -109 45
-6 6 -12 25 -14 44 -2 18 -8 34 -12 36 -35 12 -58 31 -60 50 -2 12 -10 22 -18
22 -8 0 -14 7 -14 15 0 8 -11 17 -23 21 -32 7 -84 65 -103 111 l-14 38 5 -33z"/>
<path d="M5711 3237 c2 -1 13 -9 24 -17 19 -14 19 -14 6 3 -7 9 -18 17 -24 17
-6 0 -8 -1 -6 -3z"/>
<path d="M1037 3204 c-9 -10 2 -24 19 -24 8 0 14 7 14 15 0 15 -21 21 -33 9z"/>
<path d="M350 3130 c0 -5 7 -10 16 -10 8 0 12 5 9 10 -3 6 -10 10 -16 10 -5 0
-9 -4 -9 -10z"/>
<path d="M1432 3055 c0 -16 2 -22 5 -12 2 9 2 23 0 30 -3 6 -5 -1 -5 -18z"/>
<path d="M1037 3030 c-3 -11 -1 -23 4 -26 5 -3 9 6 9 20 0 31 -6 34 -13 6z"/>
<path d="M1105 2980 c3 -5 10 -10 16 -10 5 0 9 5 9 10 0 6 -7 10 -16 10 -8 0
-12 -4 -9 -10z"/>
<path d="M1246 2962 c-3 -5 1 -15 9 -22 16 -14 20 -3 6 19 -5 8 -11 9 -15 3z"/>
<path d="M1402 2923 c-10 -4 -7 -9 8 -20 24 -17 33 -13 24 11 -6 17 -10 18
-32 9z"/>
<path d="M493 2885 c0 -22 2 -30 4 -17 2 12 2 30 0 40 -3 9 -5 -1 -4 -23z"/>
<path d="M1568 2868 c-3 -31 -6 -73 -13 -228 -5 -128 -10 -168 -22 -177 -13
-10 -12 -13 6 -23 20 -10 25 -7 22 13 -1 7 10 165 24 355 4 47 2 72 -5 72 -5
0 -11 -6 -12 -12z"/>
<path d="M5558 2725 c-2 -3 -30 -6 -61 -6 -31 -1 -54 -5 -51 -10 6 -11 126 -1
139 12 5 6 3 9 -6 9 -9 0 -18 -2 -21 -5z"/>
<path d="M5283 2703 c15 -2 39 -2 55 0 15 2 2 4 -28 4 -30 0 -43 -2 -27 -4z"/>
<path d="M5112 2692 c-13 -9 -13 -62 0 -62 12 0 20 25 16 49 -2 14 -7 18 -16
13z"/>
<path d="M5105 2600 c3 -5 8 -10 11 -10 2 0 4 5 4 10 0 6 -5 10 -11 10 -5 0
-7 -4 -4 -10z"/>
<path d="M925 2580 c3 -5 8 -10 11 -10 2 0 4 5 4 10 0 6 -5 10 -11 10 -5 0 -7
-4 -4 -10z"/>
<path d="M5230 2557 c0 -23 13 -28 29 -13 11 10 44 16 91 19 71 3 70 3 -22 5
-76 2 -98 -1 -98 -11z"/>
<path d="M1090 2550 c0 -5 5 -10 11 -10 5 0 7 5 4 10 -3 6 -8 10 -11 10 -2 0
-4 -4 -4 -10z"/>
<path d="M1390 2490 c0 -5 5 -10 11 -10 5 0 7 5 4 10 -3 6 -8 10 -11 10 -2 0
-4 -4 -4 -10z"/>
<path d="M5983 2483 c-7 -2 -13 -8 -13 -13 0 -8 57 4 68 15 7 6 -39 5 -55 -2z"/>
<path d="M415 2310 c3 -5 8 -10 11 -10 2 0 4 5 4 10 0 6 -5 10 -11 10 -5 0 -7
-4 -4 -10z"/>
<path d="M5560 2145 c7 -8 16 -15 21 -15 5 0 6 7 3 15 -4 8 -13 15 -21 15 -13
0 -13 -3 -3 -15z"/>
<path d="M252 2048 c5 -15 28 -18 29 -3 0 6 -7 12 -17 13 -10 3 -15 -1 -12
-10z"/>
<path d="M6140 2030 c0 -5 7 -7 15 -4 8 4 15 8 15 10 0 2 -7 4 -15 4 -8 0 -15
-4 -15 -10z"/>
<path d="M6059 1982 c-12 -8 -46 -16 -76 -18 -30 -1 -58 -5 -60 -8 -3 -3 5
-22 17 -43 22 -37 22 -41 15 -283 -4 -135 -7 -247 -6 -250 1 -8 75 -11 87 -3
7 6 7 44 -2 133 -20 192 -18 300 7 380 l21 69 44 7 c24 3 44 10 44 14 0 15
-71 16 -91 2z"/>
<path d="M1387 1928 c-4 -29 -9 -145 -12 -258 -3 -113 -8 -269 -11 -347 -5
-121 -4 -143 8 -143 12 0 16 37 22 218 3 119 9 299 13 400 4 123 3 182 -4 182
-6 0 -13 -24 -16 -52z"/>
<path d="M2463 1956 c-26 -27 -30 -48 -8 -40 8 4 15 12 15 19 0 7 9 15 21 18
12 3 18 10 14 16 -9 16 -17 13 -42 -13z"/>
<path d="M5600 1950 c0 -5 4 -10 9 -10 6 0 13 5 16 10 3 6 -1 10 -9 10 -9 0
-16 -4 -16 -10z"/>
<path d="M5773 1953 c9 -2 23 -2 30 0 6 3 -1 5 -18 5 -16 0 -22 -2 -12 -5z"/>
<path d="M481 1880 c0 -33 1 -34 10 -11 6 16 6 28 -1 35 -7 7 -10 -1 -9 -24z"/>
<path d="M244 1867 c-9 -24 6 -44 18 -22 7 11 6 21 -1 28 -7 7 -12 6 -17 -6z"/>
<path d="M2408 1857 c-34 -62 -108 -122 -108 -87 0 6 -7 10 -15 10 -8 0 -15
-4 -15 -10 0 -5 4 -10 9 -10 5 0 12 -12 15 -26 5 -18 12 -24 22 -20 9 3 12 1
9 -4 -8 -14 7 -12 26 3 16 12 82 157 75 165 -3 2 -10 -7 -18 -21z"/>
<path d="M2979 1814 l-24 -27 28 18 c15 9 27 21 27 26 0 14 -5 11 -31 -17z"/>
<path d="M2845 1769 c-13 -42 -27 -66 -47 -80 -15 -11 -28 -26 -28 -32 0 -7 7
-4 14 5 7 10 15 15 18 12 3 -3 23 5 44 17 89 49 123 87 67 73 -25 -7 -26 -6
-20 30 5 30 3 36 -12 36 -13 0 -23 -16 -36 -61z"/>
<path d="M6145 1810 c-3 -5 -1 -10 4 -10 6 0 11 5 11 10 0 6 -2 10 -4 10 -3 0
-8 -4 -11 -10z"/>
<path d="M240 1751 c0 -23 2 -41 4 -41 8 0 12 71 4 76 -4 3 -8 -13 -8 -35z"/>
<path d="M5730 1650 c0 -5 5 -10 10 -10 6 0 10 5 10 10 0 6 -4 10 -10 10 -5 0
-10 -4 -10 -10z"/>
<path d="M460 1580 c11 -11 20 -24 20 -30 0 -5 7 -7 16 -3 13 5 11 10 -12 29
-33 29 -52 32 -24 4z"/>
<path d="M201 1560 c-8 -111 -20 -192 -29 -203 -13 -15 -24 -260 -12 -252 6 4
10 32 25 185 4 41 13 89 29 160 3 14 11 27 16 28 7 3 7 9 -1 18 -7 8 -16 32
-20 52 -5 28 -7 31 -8 12z"/>
<path d="M462 1508 c-7 -7 -12 -16 -12 -20 0 -15 15 -8 28 12 13 22 3 27 -16
8z"/>
<path d="M265 1470 c-3 -5 -1 -10 4 -10 6 0 11 5 11 10 0 6 -2 10 -4 10 -3 0
-8 -4 -11 -10z"/>
<path d="M340 1471 c-24 -7 -24 -7 7 -14 35 -7 63 -1 63 14 0 10 -34 10 -70 0z"/>
<path d="M150 1370 c0 -5 5 -10 10 -10 6 0 10 5 10 10 0 6 -4 10 -10 10 -5 0
-10 -4 -10 -10z"/>
<path d="M2120 1340 c0 -5 5 -10 11 -10 5 0 7 5 4 10 -3 6 -8 10 -11 10 -2 0
-4 -4 -4 -10z"/>
<path d="M72 1280 c0 -14 2 -19 5 -12 2 6 2 18 0 25 -3 6 -5 1 -5 -13z"/>
<path d="M225 1237 c-4 -10 -5 -21 -1 -24 10 -10 18 4 13 24 -4 17 -4 17 -12
0z"/>
<path d="M240 1164 c0 -17 22 -14 28 4 2 7 -3 12 -12 12 -9 0 -16 -7 -16 -16z"/>
<path d="M2157 1136 c-4 -10 -1 -13 8 -9 8 3 12 9 9 14 -7 12 -11 11 -17 -5z"/>
<path d="M426 1132 c-9 -15 23 -24 42 -12 10 5 12 10 5 10 -6 0 -18 3 -26 6
-8 3 -18 1 -21 -4z"/>
<path d="M320 1091 c0 -5 6 -12 13 -14 9 -4 8 -8 -3 -16 -16 -11 -135 -4 -162
10 -10 6 -19 5 -23 -1 -3 -5 -37 -10 -76 -10 -65 0 -69 -1 -69 -22 0 -22 3
-23 103 -22 217 3 233 4 252 18 18 13 18 15 2 40 -17 26 -37 35 -37 17z"/>
<path d="M5790 981 c0 -6 5 -13 10 -16 6 -3 10 1 10 9 0 9 -4 16 -10 16 -5 0
-10 -4 -10 -9z"/>
<path d="M395 971 c-13 -13 -132 -16 -278 -7 l-117 7 0 -160 0 -161 103 1 c56
0 111 4 122 9 16 7 11 9 -20 9 -40 1 -85 23 -85 42 0 5 12 9 26 9 20 0 25 4
20 16 -3 9 -6 20 -6 26 0 6 -7 5 -16 -3 -14 -11 -18 -10 -30 6 -8 10 -14 31
-14 46 0 15 -5 31 -10 34 -5 3 -10 17 -10 31 0 21 5 24 33 23 27 0 29 -2 12
-9 -16 -7 -17 -9 -3 -9 9 -1 18 -11 20 -23 3 -26 38 -38 38 -15 0 9 -6 17 -12
20 -9 3 -8 10 6 26 11 11 14 21 8 21 -7 0 -12 4 -12 9 0 9 51 16 185 25 33 3
61 5 63 5 1 1 2 8 2 16 0 17 -11 20 -25 6z m-318 -57 c-3 -3 -12 -4 -19 -1 -8
3 -5 6 6 6 11 1 17 -2 13 -5z"/>
<path d="M2520 950 c0 -10 5 -22 10 -25 6 -3 10 -4 10 -1 0 2 3 11 6 19 3 8
-2 17 -10 20 -11 5 -16 0 -16 -13z"/>
<path d="M5730 960 c0 -5 9 -10 19 -10 11 0 23 5 26 10 4 6 -5 10 -19 10 -14
0 -26 -4 -26 -10z"/>
<path d="M0 625 c0 -12 15 -15 78 -14 61 1 70 3 42 9 -87 19 -120 21 -120 5z"/>
<path d="M5923 523 c9 -2 23 -2 30 0 6 3 -1 5 -18 5 -16 0 -22 -2 -12 -5z"/>
<path d="M6076 519 c3 -5 29 -9 57 -8 59 1 54 5 -15 12 -26 2 -45 1 -42 -4z"/>
<path d="M6208 513 c6 -2 18 -2 25 0 6 3 1 5 -13 5 -14 0 -19 -2 -12 -5z"/>
<path d="M1599 496 c-2 -2 -66 -6 -143 -10 -76 -3 -141 -8 -145 -12 -8 -8 359
6 401 16 26 6 19 8 -38 9 -39 1 -73 -1 -75 -3z"/>
<path d="M868 453 c12 -2 32 -2 45 0 12 2 2 4 -23 4 -25 0 -35 -2 -22 -4z"/>
</g>
</svg>
